<svg xmlns="http://www.w3.org/2000/svg" viewBox="0 0 269 45" fill="#ffffff">
  <path d="M25.23 28.47L25.23 28.47L30.84 30.25Q29.55 34.94 26.55 37.21Q23.55 39.49 18.94 39.49L18.94 39.49Q13.24 39.49 9.57 35.59Q5.89 31.70 5.89 24.94L5.89 24.94Q5.89 17.79 9.59 13.83Q13.28 9.88 19.29 9.88L19.29 9.88Q24.55 9.88 27.83 12.98L27.83 12.98Q29.78 14.82 30.76 18.26L30.76 18.26L25.04 19.63Q24.53 17.40 22.92 16.11Q21.30 14.82 19 14.82L19 14.82Q15.82 14.82 13.83 17.11Q11.85 19.39 11.85 24.51L11.85 24.51Q11.85 29.94 13.80 32.24Q15.76 34.55 18.88 34.55L18.88 34.55Q21.19 34.55 22.85 33.08Q24.51 31.62 25.23 28.47Z" />
  <path d="M38.94 10.37L44.43 10.37L44.43 20.89Q47.08 17.79 50.77 17.79L50.77 17.79Q52.67 17.79 54.19 18.49Q55.72 19.20 56.49 20.29Q57.26 21.38 57.54 22.71Q57.83 24.04 57.83 26.83L57.83 26.83L57.83 39L52.34 39L52.34 28.04Q52.34 24.78 52.02 23.90Q51.71 23.02 50.92 22.51Q50.13 21.99 48.94 21.99L48.94 21.99Q47.57 21.99 46.50 22.65Q45.42 23.32 44.92 24.65Q44.43 25.99 44.43 28.61L44.43 28.61L44.43 39L38.94 39L38.94 10.37Z" />
  <path d="M78.60 32.40L78.60 32.40L84.07 33.32Q83.02 36.32 80.74 37.90Q78.47 39.47 75.05 39.47L75.05 39.47Q69.64 39.47 67.04 35.93L67.04 35.93Q64.99 33.10 64.99 28.79L64.99 28.79Q64.99 23.63 67.69 20.71Q70.38 17.79 74.50 17.79L74.50 17.79Q79.13 17.79 81.81 20.85Q84.48 23.90 84.36 30.21L84.36 30.21L70.61 30.21Q70.67 32.65 71.94 34.01Q73.21 35.37 75.11 35.37L75.11 35.37Q76.40 35.37 77.28 34.66Q78.15 33.96 78.60 32.40ZM70.71 26.85L78.92 26.85Q78.86 24.47 77.69 23.23Q76.51 21.99 74.83 21.99L74.83 21.99Q73.04 21.99 71.86 23.30L71.86 23.30Q70.69 24.61 70.71 26.85L70.71 26.85Z" />
  <path d="M90.10 33.08L90.10 33.08L95.61 32.24Q95.96 33.84 97.04 34.67Q98.11 35.50 100.05 35.50L100.05 35.50Q102.17 35.50 103.25 34.72L103.25 34.72Q103.97 34.18 103.97 33.26L103.97 33.26Q103.97 32.63 103.58 32.22L103.58 32.22Q103.17 31.83 101.74 31.50L101.74 31.50Q95.10 30.04 93.33 28.82L93.33 28.82Q90.87 27.14 90.87 24.16L90.87 24.16Q90.87 21.46 92.99 19.63Q95.12 17.79 99.60 17.79L99.60 17.79Q103.85 17.79 105.92 19.18Q107.99 20.56 108.78 23.28L108.78 23.28L103.60 24.23Q103.27 23.02 102.34 22.38Q101.41 21.73 99.69 21.73L99.69 21.73Q97.53 21.73 96.59 22.34L96.59 22.34Q95.96 22.77 95.96 23.45L95.96 23.45Q95.96 24.04 96.51 24.45L96.51 24.45Q97.25 25.00 101.64 25.99Q106.02 26.99 107.76 28.43L107.76 28.43Q109.48 29.90 109.48 32.52L109.48 32.52Q109.48 35.37 107.10 37.42Q104.71 39.47 100.05 39.47L100.05 39.47Q95.81 39.47 93.34 37.75Q90.87 36.03 90.10 33.08Z" />
  <path d="M115.55 33.08L115.55 33.08L121.06 32.24Q121.41 33.84 122.48 34.67Q123.56 35.50 125.49 35.50L125.49 35.50Q127.62 35.50 128.69 34.72L128.69 34.72Q129.42 34.18 129.42 33.26L129.42 33.26Q129.42 32.63 129.03 32.22L129.03 32.22Q128.62 31.83 127.19 31.50L127.19 31.50Q120.55 30.04 118.77 28.82L118.77 28.82Q116.31 27.14 116.31 24.16L116.31 24.16Q116.31 21.46 118.44 19.63Q120.57 17.79 125.04 17.79L125.04 17.79Q129.30 17.79 131.37 19.18Q133.44 20.56 134.22 23.28L134.22 23.28L129.05 24.23Q128.71 23.02 127.79 22.38Q126.86 21.73 125.14 21.73L125.14 21.73Q122.97 21.73 122.03 22.34L122.03 22.34Q121.41 22.77 121.41 23.45L121.41 23.45Q121.41 24.04 121.96 24.45L121.96 24.45Q122.70 25.00 127.08 25.99Q131.47 26.99 133.21 28.43L133.21 28.43Q134.93 29.90 134.93 32.52L134.93 32.52Q134.93 35.37 132.54 37.42Q130.16 39.47 125.49 39.47L125.49 39.47Q121.25 39.47 118.78 37.75Q116.31 36.03 115.55 33.08Z" />
  <!-- first "i": pawn silhouette from public/assets/pieces/Chess_pdt45.svg -->
  <g transform="translate(131.13,7.4) scale(0.8)"><path d="m 22.5,9 c -2.21,0 -4,1.79 -4,4 0,0.89 0.29,1.71 0.78,2.38 C 17.33,16.5 16,18.59 16,21 c 0,2.03 0.94,3.84 2.41,5.03 C 15.41,27.09 11,31.58 11,39.5 H 34 C 34,31.58 29.59,27.09 26.59,26.03 28.06,24.84 29,23.03 29,21 29,18.59 27.67,16.5 25.72,15.38 26.21,14.71 26.5,13.89 26.5,13 c 0,-2.21 -1.79,-4 -4,-4 z" /></g>
  <!-- f, shifted right to make room for the pawn -->
  <g transform="translate(7.60,0)"><path d="M155.73 22.57L155.73 18.26L158.77 18.26L158.77 16.70Q158.77 14.08 159.33 12.79Q159.89 11.50 161.38 10.69Q162.88 9.88 165.16 9.88L165.16 9.88Q167.50 9.88 169.75 10.58L169.75 10.58L169.01 14.41Q167.70 14.10 166.49 14.10L166.49 14.10Q165.30 14.10 164.78 14.65Q164.26 15.21 164.26 16.79L164.26 16.79L164.26 18.26L168.36 18.26L168.36 22.57L164.26 22.57L164.26 39L158.77 39L158.77 22.57L155.73 22.57Z" /></g>
  <!-- second "i": pawn silhouette -->
  <g transform="translate(173.55,7.4) scale(0.8)"><path d="m 22.5,9 c -2.21,0 -4,1.79 -4,4 0,0.89 0.29,1.71 0.78,2.38 C 17.33,16.5 16,18.59 16,21 c 0,2.03 0.94,3.84 2.41,5.03 C 15.41,27.09 11,31.58 11,39.5 H 34 C 34,31.58 29.59,27.09 26.59,26.03 28.06,24.84 29,23.03 29,21 29,18.59 27.67,16.5 25.72,15.38 26.21,14.71 26.5,13.89 26.5,13 c 0,-2.21 -1.79,-4 -4,-4 z" /></g>
  <!-- l -->
  <g transform="translate(17.50,0)"><path d="M188.25 10.37L193.45 10.37L193.45 39L188.25 39Z" /></g>
  <!-- e, d -->
  <g transform="translate(26.70,0)">
    <path d="M201.86 32.40L201.86 32.40L207.33 33.32Q206.28 36.32 204.00 37.90Q201.72 39.47 198.31 39.47L198.31 39.47Q192.90 39.47 190.30 35.93L190.30 35.93Q188.25 33.10 188.25 28.79L188.25 28.79Q188.25 23.63 190.94 20.71Q193.64 17.79 197.76 17.79L197.76 17.79Q202.39 17.79 205.06 20.85Q207.74 23.90 207.62 30.21L207.62 30.21L193.87 30.21Q193.93 32.65 195.20 34.01Q196.47 35.37 198.37 35.37L198.37 35.37Q199.65 35.37 200.53 34.66Q201.41 33.96 201.86 32.40ZM193.97 26.85L202.17 26.85Q202.12 24.47 200.94 23.23Q199.77 21.99 198.09 21.99L198.09 21.99Q196.30 21.99 195.12 23.30L195.12 23.30Q193.95 24.61 193.97 26.85L193.97 26.85Z" />
    <path d="M234.32 10.37L234.32 39L229.22 39L229.22 35.95Q227.95 37.73 226.22 38.60Q224.50 39.47 222.74 39.47L222.74 39.47Q219.16 39.47 216.61 36.59Q214.07 33.71 214.07 28.55L214.07 28.55Q214.07 23.28 216.55 20.53Q219.03 17.79 222.82 17.79L222.82 17.79Q226.29 17.79 228.83 20.68L228.83 20.68L228.83 10.37L234.32 10.37ZM219.67 28.18L219.67 28.18Q219.67 31.50 220.59 32.98L220.59 32.98Q221.92 35.13 224.30 35.13L224.30 35.13Q226.19 35.13 227.52 33.52Q228.85 31.91 228.85 28.71L228.85 28.71Q228.85 25.13 227.56 23.56Q226.27 21.99 224.26 21.99L224.26 21.99Q222.31 21.99 220.99 23.54Q219.67 25.09 219.67 28.18Z" />
  </g>
</svg>
